<svg xmlns="http://www.w3.org/2000/svg" version="1.1" xmlns:xlink="http://www.w3.org/1999/xlink" xmlns:svgjs="http://svgjs.dev/svgjs" width="2000" height="1830" viewBox="0 0 2000 1830"><g transform="matrix(1,0,0,1,-0.9575493625690115,-2.9516129032258505)"><svg viewBox="0 0 271 248" data-background-color="#000000" preserveAspectRatio="xMidYMid meet" height="1830" width="2000" xmlns="http://www.w3.org/2000/svg" xmlns:xlink="http://www.w3.org/1999/xlink"><g id="tight-bounds" transform="matrix(1,0,0,1,0.12974793862809975,0.4000000000000057)"><svg viewBox="0 0 270.7405041227438 247.2" height="247.2" width="270.7405041227438"><g><svg viewBox="0 0 395.52 361.13009509531497" height="247.2" width="270.7405041227438"><g transform="matrix(1,0,0,1,0,303.2237946106623)"><svg viewBox="0 0 395.52 57.906300484652654" height="57.906300484652654" width="395.52"><g id="textblocktransform"><svg viewBox="-100 0 395.52 57.906300484652654" height="57.906300484652654" width="395.52" id="textblock"><g><svg viewBox="0 0 395.52 57.906300484652654" height="57.906300484652654" width="395.52"><g transform="matrix(1,0,0,1,0,0)"><svg width="195.52" viewBox="1 -19.6 247.58 36.25" height="57.906300484652654" data-palette-color="#6d6df9"><g class="wordmark-text-0" data-fill-palette-color="primary" id="text-0"><path d="M15.9 0.65L15.9 0.65Q9.1 0.65 5.05-3.95 1-8.55 1-17.55 1-26.55 4.53-31.08 8.05-35.6 15.95-35.6L15.95-35.6Q19.3-35.6 22.38-34.7 25.45-33.8 26.55-33.18 27.65-32.55 28.3-32.05L28.3-32.05Q28.3-28.85 27.5-24.95L27.5-24.95Q26.2-24.35 24.93-24.35 23.65-24.35 22.75-24.45L22.75-24.45 21.7-29.65Q19.5-30.25 17.4-30.25L17.4-30.25Q14.45-30.25 10.05-29.05L10.05-29.05Q7.85-24.65 7.85-18.35L7.85-18.35Q7.85-4.55 15.95-4.55L15.95-4.55Q20-4.55 22.4-5.9L22.4-5.9Q22.5-8.5 22.6-13.9L22.6-13.9 18.4-15.2 18.8-18.25 30.9-18.25Q31.5-17.15 31.8-14.3L31.8-14.3Q30.1-13.95 28.15-13.8L28.15-13.8Q28.45-7.35 28.45-2.7L28.45-2.7Q27-1.75 23.2-0.55 19.4 0.65 15.9 0.65ZM49.05-20.6L49.05-20.6Q48.95-20.85 48.05-20.85 47.15-20.85 44.95-19.5L44.95-19.5Q44.75-9.7 44.7-4.8L44.7-4.8 48.6-4.3Q48.6-2.15 47.45 0L47.45 0 35 0 34.55-2.75Q37.65-3.9 39.05-4.25L39.05-4.25 38.5-20.45Q35.9-20.65 34.15-21.2L34.15-21.2 34.5-24.8Q35.85-25.4 44.25-25.6L44.25-25.6Q44.7-25.15 44.7-23.85L44.7-23.85Q49.1-26 50.27-26 51.45-26 53.17-25.43 54.9-24.85 55.8-24.2L55.8-24.2 55.8-23.35Q55.8-19.25 54.8-15.75L54.8-15.75Q53.95-15.4 52.55-15.4 51.15-15.4 49.95-15.55L49.95-15.55Q49.8-16.2 49.05-20.6ZM69.95-22L69.95-22Q68.15-22 65.85-21.1L65.85-21.1Q65.2-20.1 64.62-17.57 64.05-15.05 64.05-12.5L64.05-12.5Q64.05-7.8 65.45-5.83 66.85-3.85 69.97-3.85 73.1-3.85 74.5-5.83 75.9-7.8 75.9-12.63 75.9-17.45 74.47-19.73 73.05-22 69.95-22ZM69.95-26Q75.8-26 79.37-22.43 82.95-18.85 82.95-12.48 82.95-6.1 79.4-2.75 75.85 0.6 69.95 0.6 64.05 0.6 60.52-2.75 57-6.1 57-12.48 57-18.85 60.55-22.43 64.1-26 69.95-26ZM96.84-22L96.84-22Q95.04-22 92.74-21.1L92.74-21.1Q92.09-20.1 91.52-17.57 90.94-15.05 90.94-12.5L90.94-12.5Q90.94-7.8 92.34-5.83 93.74-3.85 96.87-3.85 99.99-3.85 101.39-5.83 102.79-7.8 102.79-12.63 102.79-17.45 101.37-19.73 99.94-22 96.84-22ZM96.84-26Q102.69-26 106.27-22.43 109.84-18.85 109.84-12.48 109.84-6.1 106.29-2.75 102.74 0.6 96.84 0.6 90.94 0.6 87.42-2.75 83.89-6.1 83.89-12.48 83.89-18.85 87.44-22.43 90.99-26 96.84-26ZM123.24-7.5L124.19-7.5 126.04-14.95 128.69-21.35Q126.99-21.65 124.49-22.65L124.49-22.65 124.94-25.4 137.39-25.4Q138.54-23.1 138.54-21.05L138.54-21.05Q136.59-20.75 134.64-20.65L134.64-20.65Q133.64-17.3 130.72-10.3 127.79-3.3 126.79 0L126.79 0 120.34 0 112.39-20.6 108.49-21.05Q108.49-23.1 109.64-25.4L109.64-25.4 122.09-25.4 122.54-22.65Q120.49-21.7 119.09-21.35L119.09-21.35 121.49-15 123.24-7.5ZM153.34-4.3L153.34-4.3Q155.04-4.3 160.24-6.65L160.24-6.65Q161.34-5.05 161.89-2.95L161.89-2.95Q159.14-1.25 156.51-0.33 153.89 0.6 152.79 0.6L152.79 0.6Q146.74 0.6 143.61-2.75 140.49-6.1 140.49-12.28 140.49-18.45 143.59-22.23 146.69-26 152.79-26L152.79-26Q157.64-26 160.19-22.85 162.74-19.7 162.74-14.65L162.74-14.65Q162.74-13.6 161.54-12.25L161.54-12.25 147.14-12.5Q147.24-8.5 148.64-6.4 150.04-4.3 153.34-4.3ZM152.34-21.85L152.34-21.85Q150.44-21.85 148.79-21.1L148.79-21.1Q147.64-18.7 147.34-16.65L147.34-16.65Q151.24-16.8 156.19-16.85L156.19-16.85Q155.94-21.85 152.34-21.85ZM186.34-4.8L187.44-9.1Q188.64-9.3 189.26-9.3 189.89-9.3 191.99-8.95L191.99-8.95Q192.19-8.55 192.56-6.4 192.94-4.25 192.94-2.93 192.94-1.6 192.64 0L192.64 0 168.39 0 167.94-2.75Q170.39-3.75 172.14-4.2L172.14-4.2Q172.14-4.35 171.69-30.65L171.69-30.65 167.53-31.95 167.94-35 180.94-35Q180.89-35 180.96-34.9 181.03-34.8 181.16-34.48 181.28-34.15 181.44-33.7L181.44-33.7Q181.74-32.9 181.84-31.05L181.84-31.05Q179.28-30.65 178.49-30.55L178.49-30.55Q178.28-13.3 178.24-4.8L178.24-4.8 186.34-4.8ZM205.63-25.6L205.63-25.6Q206.58-25.6 206.83-25.55L206.83-25.55Q206.83-23.1 205.98-21L205.98-21Q205.78-10.2 205.73-4.8L205.73-4.8 209.63-4.35Q209.63-2.3 208.48 0L208.48 0 196.03 0 195.58-2.75Q198.68-3.9 200.08-4.25L200.08-4.25 199.53-20.45Q196.58-20.75 195.18-21.2L195.18-21.2Q195.18-22.45 195.53-24.8L195.53-24.8Q198.48-25.6 205.63-25.6ZM205.63-35.05L205.63-35.05Q206.08-32.8 206.08-31.63 206.08-30.45 205.88-29L205.88-29Q203.88-28.55 202.51-28.55 201.13-28.55 199.18-28.7L199.18-28.7Q198.73-30.95 198.73-32.13 198.73-33.3 198.93-34.75L198.93-34.75Q200.93-35.2 202.31-35.2 203.68-35.2 205.63-35.05ZM229.03-23.85L229.03-23.85 229.08-22.3Q229.08-18.4 228.48-17.2L228.48-17.2Q226.83-16.6 223.88-16.6L223.88-16.6 222.28-21.65Q221.63-21.9 220.48-21.9 219.33-21.9 218.61-21.2 217.88-20.5 217.88-19.55 217.88-18.6 218.63-17.82 219.38-17.05 220.18-16.6 220.98-16.15 222.51-15.43 224.03-14.7 224.81-14.3 225.58-13.9 226.81-13.1 228.03-12.3 228.68-11.6L228.68-11.6Q230.28-9.7 230.28-7.45L230.28-7.45Q230.28-3.6 227.36-1.5 224.43 0.6 220.18 0.6L220.18 0.6Q217.93 0.6 215.26-0.2 212.58-1 210.73-2.35L210.73-2.35Q210.73-5.95 211.43-9.05L211.43-9.05Q213.43-9.3 214.68-9.3 215.93-9.3 216.38-9.25L216.38-9.25 216.98-4.4Q218.23-3.95 219.98-3.95 221.73-3.95 222.76-4.65 223.78-5.35 223.78-6.63 223.78-7.9 222.63-8.75 221.48-9.6 219.48-10.53 217.48-11.45 216.38-12.08 215.28-12.7 214.03-13.7L214.03-13.7Q211.48-15.65 211.48-18.5L211.48-18.5Q211.48-22.05 213.96-24.03 216.43-26 220.63-26 224.83-26 229.03-23.85ZM239.28 0.6L239.28 0.6 238.18 0.55Q237.88 0 237.38-1.5 236.88-3 236.83-3.75L236.83-3.75Q236.58-8.7 236.28-20.9L236.28-20.9 232.78-20.9 232.93-23.75Q234.08-24.55 235.68-25.2L235.68-25.2 239.73-31.6Q241.68-31.4 242.78-30.55L242.78-30.55 242.73-25.8Q245.88-25.7 248.58-25.2L248.58-25.2Q248.58-23.2 247.33-20.9L247.33-20.9 242.68-20.9Q242.48-10.4 242.43-5.15L242.43-5.15Q244.43-4.95 247.88-4L247.88-4 247.83-1.4Q246.98-0.85 244.05-0.13 241.13 0.6 239.28 0.6Z" fill="#6d6df9" data-fill-palette-color="primary"></path></g></svg></g></svg></g></svg></g></svg></g><g transform="matrix(1,0,0,1,29.962577859382776,0)"><svg viewBox="0 0 335.59484428123443 289.55350681744744" height="289.55350681744744" width="335.59484428123443"><g><svg xmlns="http://www.w3.org/2000/svg" xmlns:xlink="http://www.w3.org/1999/xlink" version="1.1" x="0" y="0" viewBox="0.0005277688494516077 0.0004999999999997229 100.00007422447902 86.28074199327634" enable-background="new 0 0 100 100" xml:space="preserve" id="icon-0" width="335.59484428123443" height="289.55350681744744" class="icon-icon-0" data-fill-palette-color="accent"><path fill-rule="evenodd" clip-rule="evenodd" d="M99.951 59.13C99.905 56.191 98.142 51.438 95.013 50.937V42.367A0.55 0.55 0 0 0 94.463 41.818H93.042C91.336 34.061 88.245 27.222 84.356 21.493L84.36 21.104C84.381 20.042 83.58 18.091 82.583 16.877 64.63-5.625 35.371-5.625 17.418 16.877 16.42 18.09 15.62 20.042 15.64 21.104L15.644 21.493C11.755 27.222 8.665 34.061 6.958 41.818H5.538A0.55 0.55 0 0 0 4.988 42.367V50.937C1.857 51.436 0.094 56.191 0.05 59.13A683 683 0 0 0 0.05 75.571C0.095 78.53 1.882 81.692 5.055 82.133 6.73 82.353 9.401 81.678 11.561 80.505 11.574 82.897 11.59 84.406 11.61 84.419 11.616 84.925 12.069 85.525 12.631 85.703 15.346 86.575 18.178 86.455 20.893 85.382 21.455 85.16 21.914 84.041 21.914 84.041V46.599C21.909 46.104 21.456 45.48 20.893 45.258 18.179 44.186 15.345 44.066 12.631 44.937 12.069 45.116 11.616 45.716 11.61 46.222 11.587 46.236 11.569 48.142 11.556 51.088 11.014 50.846 10.366 50.71 9.658 50.652V42.768C11.157 35.185 14.091 28.535 17.856 23.009L18.208 22.897C19.166 22.585 20.599 21.821 21.456 20.794 38.078 0.25 61.924 0.251 78.545 20.794 79.401 21.821 80.833 22.585 81.793 22.897L82.144 23.008C85.908 28.533 88.842 35.183 90.342 42.765V50.65C89.633 50.708 88.985 50.843 88.444 51.086 88.431 48.141 88.414 46.233 88.39 46.22 88.385 45.714 87.932 45.114 87.369 44.935 84.655 44.064 81.82 44.184 79.107 45.256 78.545 45.478 78.087 46.597 78.087 46.597V84.039S78.545 85.158 79.107 85.38C81.821 86.453 84.654 86.573 87.369 85.701 87.931 85.523 88.385 84.923 88.39 84.417 88.411 84.404 88.427 82.896 88.439 80.504 90.6 81.676 93.27 82.351 94.945 82.131 98.119 81.691 99.906 78.528 99.952 75.569A688 688 0 0 0 99.951 59.13" fill="#6d6df9" data-fill-palette-color="accent"></path></svg></g></svg></g><g></g></svg></g><defs></defs></svg><rect width="270.7405041227438" height="247.2" fill="none" stroke="none" visibility="hidden"></rect></g></svg></g></svg>